<?xml version="1.0" encoding="utf-8"?>
<!-- Generator: Adobe Illustrator 25.2.1, SVG Export Plug-In . SVG Version: 6.00 Build 0)  -->
<svg version="1.1" id="Layer_1" xmlns="http://www.w3.org/2000/svg" xmlns:xlink="http://www.w3.org/1999/xlink" x="0px" y="0px"
	 viewBox="0 0 1200 1000" style="enable-background:new 0 0 1200 1000;" xml:space="preserve">
<style type="text/css">
	.st0{fill:#FFFFFF;}
	.st1{fill:#FEDB79;}
</style>
<g>
	<path class="st0" d="M99.762,673.987c0-3.363-0.334-6.765,0.064-10.08c1.066-8.879-0.944-15.433-10.317-19.048
		c-6.394-2.466-6.84-8.857-5.193-14.652c1.668-5.868,0.701-10.364-3.59-14.763c-4.493-4.606-2.994-9.954-0.557-15.143
		c3.455-7.356,2.394-9.574-5.689-10.856c-6.67-1.058-13.268-2.261-19.349-5.282c-8.399-4.173-11.541-10.316-10.181-19.657
		c1.749-12.015,7.689-22.389,13.164-32.915c9.331-17.941,18.289-36.073,19.604-56.683c1.832-28.71,5.903-57.057,12.773-84.975
		c14.277-58.013,39.15-110.395,82.167-152.979c18.889-18.699,40.224-34.028,64.074-45.813c3.45-1.705,7.227-4.442,10.167,0.229
		c2.866,4.552-0.826,6.951-4.026,9.354c-69.039,51.848-106.252,122.224-119.939,206.252
		c-12.406,76.167,12.388,140.998,60.811,198.519c26.008,30.895,56.196,57.19,90.148,78.922c12.066,7.723,17.76,17.183,18.706,31.507
		c1.604,24.296,8.392,47.771,14.218,71.344c0.372,1.504,0.765,3.002,1.12,4.51c2.102,8.932,0.117,14.091-6.446,16.781
		c-6.616,2.711-12.008,0.344-16.335-7.506c-12.037-21.835-26.563-41.884-42.994-60.599c-16.394-18.672-16.344-18.399-41.258-16.842
		c-26.823,1.676-53.653,3.732-80.568,0.784c-10.066-1.102-15.156-6.511-17.467-15.763
		C100.019,697.233,99.481,685.651,99.762,673.987z"/>
</g>
<g>
	<path class="st0" d="M646.712,431.284c-3.851-11.855-7.244-23.46-11.369-34.8c-18.539-50.969-44.671-97.16-85.816-133.585
		c-44.839-39.696-97.926-55.513-156.902-51.781c-105.182,6.656-187.197,71.173-221.389,184.669
		c-3.015,10.009-5.401,20.208-8.809,30.212c-1.818-9.474-0.308-18.785,1.004-28.043c6.936-48.947,23.032-94.361,54.009-133.448
		c89.116-112.446,259.558-117.712,355.757-11.042c44.269,49.088,67.49,107.531,75.007,172.683
		C648.37,427.579,649.208,429.193,646.712,431.284z"/>
</g>
<g>
	<g>
		<path class="st1" d="M567.324,437.82c-2.168-44.872-19.896-82.173-52.345-112.972c-52.216-49.563-134.195-58.88-196.116-22.096
			c-5.694,3.397-11.064,10.353-17.114,9.35c-6.341-1.068-10.029-9.123-15.335-13.62c-4.044-3.397-3.914-5.791,0.518-8.832
			c63.086-43.287,129.601-50.177,199.739-18.991c13.749,6.115,26.399,14.138,38.207,23.52c2.976,2.394,6.309,4.335,9.447,0.421
			c3.494-4.367-0.744-6.309-3.203-8.703c-0.388-0.356-0.874-0.615-1.262-0.906c-43.707-32.287-92.332-47.234-146.844-42.316
			c-44.581,3.979-83.791,20.608-116.595,50.598c-48.236,44.128-71.982,99.061-69.038,165.026
			c1.423,31.899,10.546,61.436,25.655,89.258c5.791,10.676,12.682,20.705,20.284,30.217c1.974,2.459,4.27,4.012,7.247,1.553
			c2.523-2.103,2.944-4.756,1.067-7.538c-0.873-1.294-1.909-2.459-2.879-3.688c-27.402-35.36-40.892-75.865-41.442-120.154
			c-0.453-36.558,8.961-71.077,28.308-102.458c9.253-15.011,20.317-28.631,33.225-40.731c3.623-3.365,6.147-3.429,9.544,0.356
			c5.014,5.565,10.773,10.45,15.788,16.047c4.756,5.306,8.573,5.241,14.397,0.906c36.072-26.819,76.965-37.172,120.833-28.858
			c63.798,12.067,104.269,51.471,123.163,113.166c5.564,18.149,5.112,17.793-13.879,18.505c-8.185,0.323-10.611-2.556-12.456-10.158
			c-12.973-52.669-62.6-93.302-116.757-95.405c-34.163-1.294-64.768,9.091-90.682,31.672c-22.193,19.346-35.587,43.934-41.41,72.791
			c-1.229,6.179,0.971,8.864,7.182,8.541c1.812-0.097,3.623,0.129,5.435-0.032c4.303-0.388,5.856,1.197,5.694,5.759
			c-1.165,31.607,20.899,44.451,43.772,45.325c2.879,0.097,5.306,0.13,7.344,3.041c9.188,13.167,22.42,16.37,37.495,14.235
			c3.85-0.55,6.794-0.065,9.738,2.879c5.144,5.112,11.744,7.57,18.926,7.829c16.338,0.582,32.578-0.712,48.398-4.788
			c13.394-3.429,26.075-9.317,31.705-22.614c3.397-7.926,7.603-9.285,14.946-8.8c8.703,0.615,8.864,0.388,6.017,8.864
			c-22.161,66.127-96.99,98.576-160.173,69.103c-35.943-16.791-57.36-45.487-66.062-83.92c-0.841-3.721-1.909-6.891-6.373-5.597
			c-3.85,1.132-4.432,4.076-3.591,8.056c12.52,59.43,62.989,102.426,125.039,102.749c28.858,0.13,55.58-8.832,78.453-26.981
			c23.843-18.958,39.404-43.481,46.328-73.277c1.65-7.053-0.227-9.253-7.797-9.35c-5.079-0.032-10.191,0-16.143,0
			c0.873-1.973,1.294-3.138,1.876-4.173c9.058-16.046,7.57-27.725-5.241-41.378c-1.229-1.294-2.815-2.329-3.106-4.303
			c-2.362-17.276-14.105-25.752-29.343-30.346c-5.435-1.65-9.706-4.141-13.588-8.185c-5.306-5.532-11.744-9.835-19.702-9.317
			c-7.311,0.485-13.458-1.456-19.896-4.659c-16.855-8.379-31.284-5.726-44.484,7.505c-1.456,1.488-2.459,2.847-5.047,2.75
			c-15.27-0.453-25.687,7.635-33.549,19.832c-1.262,1.941-2.071,4.303-4.465,5.176c-11.679,4.206-20.543,11.582-26.464,22.581
			c-2.265,4.173-6.632,2.879-9.77,2.006c-3.591-1.035-1.456-4.27-0.809-6.6c20.026-71.465,99.093-106.728,165.317-73.503
			c34.972,17.567,55.354,46.457,62.892,84.438c1.391,6.956,4.497,9.026,11,8.67c6.697-0.388,13.491,0.291,20.155-0.194
			c6.309-0.485,8.476,1.359,8.444,8.023c-0.129,32.125-8.67,61.662-25.978,88.708c-1.1,1.747-2.329,3.429-3.203,5.273
			c-1.1,2.329-1.003,4.691,1.424,6.147c2.167,1.359,4.561,1.262,6.373-0.647c1.618-1.65,3.009-3.559,4.238-5.532
			C559.98,506.762,569.039,473.86,567.324,437.82z M313.525,419.541c9.867-12.294,23.326-16.402,38.757-14.267
			c4.173,0.582,8.509,0.744,9.253-4.206c0.809-5.37-3.882-5.823-7.861-6.018c-3.073-0.162-6.147-0.032-9.188-0.032
			c5.306-8.767,12.488-13.329,21.967-12.132c4.109,0.518,6.568-0.129,9.285-3.365c11.129-13.394,22.646-14.979,38.66-5.564
			c-2.815,3.623-5.694,7.182-8.347,10.87c-1.618,2.265-2.362,4.788,0.582,6.697c2.426,1.585,4.788,1.812,6.956-0.55
			c2.265-2.491,4.465-5.047,6.891-7.376c8.735-8.444,19.055-8.411,27.046,0.712c4.529,5.144,9.706,7.829,16.241,9.641
			c12.197,3.429,22.937,8.961,22.905,24.296c0,2.879,1.941,4.594,3.947,6.341c12.973,11.161,14.073,22.517,2.912,35.36
			c-3.979,4.562-7.02,8.929-7.926,15.302c-0.971,6.859-5.823,11.873-11.873,15.496c-10.514,6.341-22.193,8.703-34.034,9.382
			c-10.223,0.582-20.414,3.267-30.831,0.55c-9.803-2.556-11.42-5.953-5.662-14.17c2.103-2.944,3.882-6.082,5.856-9.123
			c1.618-2.491,1.812-5.014-0.712-6.859c-2.717-2.006-5.532-1.359-7.441,1.326c-2.588,3.559-4.788,7.409-7.312,10.967
			c-5.791,8.217-13.652,10.482-24.717,7.279c-10.902-3.17-15.658-8.638-16.305-18.958c-0.226-3.85,0.485-8.638-4.853-9.026
			c-4.659-0.356-5.694,3.526-5.856,7.473c-0.162,4.173-3.332,3.203-5.726,3.073c-12.294-0.744-22.29-5.953-27.305-17.34
			C303.335,442.835,304.92,430.25,313.525,419.541z"/>
	</g>
	<g>
		<path class="st1" d="M403.871,652.304c-47.333,0.385-89.838-13.964-127.588-42.522c-3.14-2.375-6.214-4.834-3.286-8.753
			c2.828-3.785,6.059-2.037,9.314,0.496c27.725,21.575,59.085,34.865,93.836,39.631c52.703,7.229,100.339-5.957,143.377-36.782
			c2.915-2.088,3.775-4.134,0.874-6.823c-0.379-0.351-0.717-0.746-1.084-1.11c-5.326-5.284-9.794-12.707-16.208-15.284
			c-7.317-2.939-12.783,5.814-19.089,9.223c-26.957,14.575-55.52,23.079-86.125,21.531c-60.6-3.064-108.67-29.788-138.785-82.719
			c-35.374-62.175-29.371-123.704,10.269-182.504c0.864-1.282,1.869-2.476,2.871-3.657c1.848-2.177,4.143-3.403,6.783-1.679
			c2.899,1.893,3.049,4.731,1.295,7.468c-3.203,4.998-6.835,9.73-9.892,14.811c-40.212,66.838-28.736,146.343,28.647,198.947
			c52.041,47.707,133.178,51.923,193.637,10.062c10.014-6.934,10.013-6.932,18.844,1.907c5.303,5.308,10.749,10.483,15.863,15.967
			c2.859,3.066,4.85,3.445,8.21,0.369c22.729-20.804,40.046-45.364,50.24-74.416c23.959-68.286,13.686-131.628-28.827-189.954
			c-0.91-1.248-1.859-2.48-2.632-3.812c-1.607-2.768-0.348-5.072,1.655-6.879c2.617-2.36,4.935-0.844,6.593,1.355
			c4.354,5.773,8.828,11.495,12.695,17.591c24.391,38.448,36.498,80.394,33.253,125.954c-3.458,48.544-22.01,91.008-55.069,126.866
			c-34.95,37.91-78.578,58.725-129.512,64.609C417.396,652.965,410.595,652.304,403.871,652.304z"/>
	</g>
	<g>
		<path class="st1" d="M391.59,460.24c-0.323,2.62-1.682,4.4-4.465,4.432c-3.106,0.065-4.465-1.682-5.014-4.723
			c-1.973-11.42-2.038-11.582-13.296-11.938c-3.494-0.129-4.918-1.876-6.406-4.529c-9.188-16.532-25.914-16.985-35.846-1.068
			c-1.65,2.588-2.879,6.05-6.956,3.947c-4.303-2.168-3.721-5.467-1.941-9.156c5.079-10.353,14.849-16.176,27.111-15.982
			c3.106,0.065,6.211,0.032,9.091,1.52c11.129,5.823,19.929,15.205,31.802,20.252C392.01,445.682,392.366,453.511,391.59,460.24z"/>
	</g>
	<g>
		<path class="st1" d="M459.917,422.615c-0.065,3.979-0.065,8.703-5.176,8.897c-5.112,0.194-5.371-4.173-5.467-8.379
			c-0.259-11.226-9.641-16.499-19.314-10.611c-3.85,2.362-6.729,2.2-9.608-0.679c-6.6-6.6-13.296-9.576-21.546-2.362
			c-2.264,2.006-5.5,1.715-7.603-0.906c-2.135-2.653-0.194-4.95,1.326-6.956c5.629-7.409,18.926-8.864,28.211-2.491
			c3.623,2.491,6.179,2.75,10.353,1.359C444.388,396.022,459.755,408.121,459.917,422.615z"/>
	</g>
	<g>
		<path class="st1" d="M474.604,450.567c-2.394,3.17-5.467,2.297-7.959-0.291c-9.803-10.223-27.272-3.72-29.375,11.647
			c-0.129,1.035-0.356,2.038-0.356,3.073c0.032,2.847-0.647,5.467-3.947,5.532c-3.203,0.065-5.176-2.071-5.564-5.338
			c-0.129-1.262,0-2.556,0-3.85c0.097-10.546,6.956-19.831,17.696-23.972c10.385-4.044,19.735-2.103,28.146,4.95
			C476.028,444.646,476.707,447.784,474.604,450.567z"/>
	</g>
</g>
<g>
	<path class="st0" d="M363.189,691.938c3.514,2.887,5.208,7.278,5.208,12.424c0,5.521-1.82,10.478-5.772,14.117
		c-3.953,3.576-10.039,5.835-18.509,5.835h-0.502l-0.816-4.58l1.694-0.313c3.2-0.753,6.023-1.632,8.157-3.765
		c2.008-2.07,3.263-5.396,3.263-10.792c0-4.016-1.067-6.902-2.887-8.784c-1.819-1.82-4.329-2.698-7.466-2.698
		c-1.569,0-3.137,0.126-4.832,0.313v53.646h-12.172v-59.355c2.572-0.126,5.646-0.314,8.847-0.439c3.2-0.126,6.463-0.188,9.537-0.188
		C354.217,687.358,359.613,688.99,363.189,691.938z"/>
	<path class="st0" d="M411.563,688.488l-1.82,8.847c-2.322-0.753-5.145-1.506-8.031-2.071c-2.824-0.438-5.709-0.815-7.78-0.815
		c-2.259,0-4.957,0.188-6.525,1.067c-1.569,0.878-2.196,3.012-2.196,6.023s1.819,4.956,4.518,6.399
		c1.38,0.753,2.949,1.38,4.643,2.008c3.514,1.255,7.278,2.636,10.729,4.455c3.514,1.819,6.274,4.518,7.969,8.407
		c0.815,1.945,1.255,4.33,1.255,7.09c0,4.33-2.259,8.91-6.337,12.361c-4.079,3.514-9.914,5.897-17.066,5.897
		c-3.89,0-7.027-0.438-9.914-1.192c-2.823-0.752-5.459-1.756-8.094-3.137l2.949-8.847c1.694,1.192,4.832,2.51,8.157,3.639
		c3.263,1.067,6.902,1.883,9.663,1.883c3.2,0,5.647-0.313,7.278-1.004c1.82-0.753,3.075-3.577,3.075-7.969
		c0-3.138-1.82-5.02-4.581-6.588c-1.318-0.753-2.886-1.443-4.643-2.134c-3.514-1.191-7.153-2.572-10.667-4.392
		s-6.274-4.455-7.906-8.22c-0.878-1.883-1.255-4.141-1.255-6.839c0-3.451,1.882-7.593,5.584-10.792
		c3.64-3.2,8.973-5.521,15.812-5.521C401.9,687.045,406.857,687.609,411.563,688.488z"/>
	<path class="st0" d="M448.078,747.342h-12.172V724.44l-19.451-36.706h13.867l14.62,29.239l15.247-29.239h7.404l-19.514,36.706
		V747.342z"/>
	<path class="st0" d="M512.139,687.484c2.949,0.313,5.647,0.689,7.278,1.129l-2.259,8.471c-1.631-0.439-4.832-1.13-8.282-1.694
		c-3.451-0.439-6.902-0.878-9.223-0.878c-2.51,0-4.204,0.125-5.772,0.564c-1.569,0.376-3.012,0.941-4.455,2.07
		c-3.702,2.51-4.706,9.788-4.706,20.203c0,15.875,4.644,24.346,15.749,24.346c3.137,0,6.525-0.252,9.851-0.69
		c3.263-0.502,6.463-1.192,9.286-2.134v4.957c-3.074,1.443-6.839,2.447-10.604,3.137c-3.765,0.754-7.718,1.192-11.231,1.192
		c-9.349,0-15.812-3.137-19.89-8.596c-4.078-5.521-5.835-13.177-5.835-22.525c0-7.466,1.945-13.364,5.02-17.819
		c3.137-4.455,7.403-7.529,11.984-9.475c4.643-1.882,9.6-2.697,14.055-2.697C505.928,687.045,509.19,687.232,512.139,687.484z"/>
	<path class="st0" d="M569.173,747.342v-26.854h-26.979v26.854h-12.173v-59.607h12.173v26.039h26.979v-26.039h12.173v59.607H569.173
		z"/>
	<path class="st0" d="M645.279,695.201c4.957,5.208,7.467,12.8,7.467,22.086c0,9.475-2.51,17.192-7.529,22.525
		c-5.082,5.396-12.611,8.345-22.588,8.345c-10.29,0-17.506-3.074-22.212-8.47c-4.706-5.396-6.839-13.051-6.839-22.4
		c0-9.286,2.259-16.878,6.965-22.086c4.705-5.271,11.984-8.094,22.148-8.094C632.73,687.107,640.26,689.931,645.279,695.201z
		 M609.954,697.146c-1.317,1.004-2.259,3.2-2.823,6.525c-0.627,3.389-0.941,7.906-0.941,13.678c0,7.153,1.004,13.051,3.576,17.255
		c2.447,4.204,6.525,6.589,12.863,6.589c6.463,0,10.479-1.256,13.302-3.138c1.317-0.815,2.321-3.576,3.012-7.278
		c0.69-3.765,1.004-8.533,1.004-13.428c0-7.277-1.255-13.113-4.079-17.129c-2.76-4.016-7.09-6.211-13.176-6.211
		C617.421,694.01,612.59,695.139,609.954,697.146z"/>
	<path class="st0" d="M689.387,694.072v53.27h-12.172v-53.27l-18.322-0.314l0.565-6.023h48.313l-0.627,5.836L689.387,694.072z"/>
	<path class="st0" d="M765.556,695.201c4.957,5.208,7.467,12.8,7.467,22.086c0,9.475-2.51,17.192-7.529,22.525
		c-5.083,5.396-12.612,8.345-22.588,8.345c-10.29,0-17.506-3.074-22.212-8.47c-4.705-5.396-6.839-13.051-6.839-22.4
		c0-9.286,2.259-16.878,6.965-22.086c4.706-5.271,11.983-8.094,22.148-8.094C753.007,687.107,760.536,689.931,765.556,695.201z
		 M730.23,697.146c-1.317,1.004-2.259,3.2-2.823,6.525c-0.628,3.389-0.941,7.906-0.941,13.678c0,7.153,1.004,13.051,3.577,17.255
		c2.446,4.204,6.525,6.589,12.862,6.589c6.462,0,10.478-1.256,13.302-3.138c1.317-0.815,2.321-3.576,3.012-7.278
		c0.689-3.765,1.004-8.533,1.004-13.428c0-7.277-1.255-13.113-4.078-17.129c-2.762-4.016-7.091-6.211-13.177-6.211
		C737.697,694.01,732.866,695.139,730.23,697.146z"/>
	<path class="st0" d="M819.891,691.938c3.514,2.887,5.207,7.278,5.207,12.424c0,5.521-1.819,10.478-5.771,14.117
		c-3.953,3.576-10.039,5.835-18.51,5.835h-0.502l-0.816-4.58l1.694-0.313c3.2-0.753,6.023-1.632,8.157-3.765
		c2.008-2.07,3.263-5.396,3.263-10.792c0-4.016-1.067-6.902-2.887-8.784c-1.819-1.82-4.329-2.698-7.466-2.698
		c-1.569,0-3.138,0.126-4.832,0.313v53.646h-12.172v-59.355c2.572-0.126,5.646-0.314,8.847-0.439c3.2-0.126,6.463-0.188,9.537-0.188
		C810.918,687.358,816.314,688.99,819.891,691.938z"/>
	<path class="st0" d="M835.01,747.342v-59.607h12.172v59.607H835.01z"/>
	<path class="st0" d="M898.694,747.342l-6.964-20.078l-22.463,0.251l-7.278,19.827h-7.655l23.655-59.105l11.733-2.008l22.022,61.113
		H898.694z M889.785,721.617l-8.973-25.726l-9.412,25.726H889.785z"/>
</g>
<g>
	<path class="st0" d="M1025.354,777.076l-4.894-45.489l-21.396,45.489h-3.764l-22.525-45.489l-4.016,45.489h-7.027l6.086-60.046
		h11.294l20.956,42.289l19.953-42.289h10.98l6.65,60.046H1025.354z"/>
	<path class="st0" d="M1097.132,758.755l-0.188-9.035c0-2.384-0.063-4.957-0.063-7.153c-0.063-1.129-0.063-2.133-0.063-3.074v-2.259
		v-19.765h7.09v59.921h-5.396l-42.102-41.851h-0.188c0.063,3.514,0.188,6.714,0.251,9.663c0.063,1.255,0.063,2.51,0.126,3.765
		c0,2.572,0.063,4.706,0.125,6.274v1.757v20.078h-7.152V717.03h5.333l42.164,41.725H1097.132z"/>
	<path class="st0" d="M1130.07,723.744v21.207l21.772,0.188l-0.564,5.584l-21.208,0.439v25.913h-12.172v-59.607h35.262l-0.564,5.961
		L1130.07,723.744z"/>
</g>
<g>
	<path class="st0" d="M510.92,796.048c0,1.736-0.313,3.29-0.938,4.663c-0.626,1.372-1.504,2.538-2.634,3.496
		c-1.131,0.959-2.473,1.691-4.027,2.195c-1.555,0.504-3.25,0.757-5.086,0.757c-1.251,0-2.433-0.116-3.542-0.348
		c-1.11-0.232-2.1-0.51-2.967-0.833c-0.868-0.322-1.6-0.651-2.195-0.984c-0.596-0.333-1.004-0.615-1.227-0.848
		c-0.222-0.231-0.383-0.504-0.484-0.817c-0.101-0.313-0.151-0.701-0.151-1.165c0-0.344,0.02-0.626,0.061-0.848
		c0.041-0.223,0.096-0.404,0.167-0.545c0.071-0.142,0.162-0.237,0.272-0.288c0.111-0.05,0.227-0.076,0.349-0.076
		c0.282,0,0.681,0.178,1.196,0.53c0.515,0.354,1.181,0.737,1.998,1.15c0.817,0.414,1.796,0.798,2.937,1.15
		c1.14,0.354,2.467,0.53,3.981,0.53c1.231,0,2.362-0.167,3.391-0.5s1.917-0.813,2.664-1.438c0.747-0.626,1.327-1.397,1.741-2.316
		c0.414-0.918,0.621-1.963,0.621-3.134c0-1.211-0.263-2.25-0.788-3.118s-1.216-1.63-2.074-2.286
		c-0.858-0.655-1.832-1.251-2.921-1.786c-1.09-0.534-2.206-1.069-3.346-1.604c-1.141-0.534-2.255-1.115-3.345-1.741
		c-1.09-0.625-2.064-1.356-2.922-2.194s-1.549-1.821-2.074-2.952c-0.525-1.13-0.787-2.473-0.787-4.026
		c0-1.515,0.272-2.871,0.817-4.072s1.312-2.221,2.301-3.059c0.989-0.837,2.175-1.478,3.558-1.922
		c1.382-0.444,2.901-0.666,4.556-0.666c0.828,0,1.666,0.081,2.513,0.242s1.65,0.368,2.407,0.62c0.757,0.253,1.433,0.535,2.029,0.848
		c0.595,0.313,0.988,0.565,1.181,0.757c0.191,0.192,0.313,0.333,0.363,0.424c0.05,0.091,0.096,0.208,0.136,0.349
		c0.04,0.142,0.07,0.308,0.091,0.5c0.02,0.191,0.03,0.429,0.03,0.711c0,0.263-0.015,0.5-0.045,0.712s-0.076,0.394-0.136,0.545
		s-0.136,0.268-0.227,0.348c-0.091,0.081-0.197,0.121-0.318,0.121c-0.223,0-0.56-0.146-1.014-0.438
		c-0.455-0.293-1.025-0.621-1.711-0.984s-1.504-0.691-2.452-0.983c-0.949-0.293-2.028-0.439-3.24-0.439
		c-1.191,0-2.23,0.162-3.118,0.484c-0.889,0.323-1.625,0.762-2.21,1.317c-0.585,0.555-1.024,1.206-1.317,1.952
		c-0.292,0.747-0.439,1.534-0.439,2.362c0,1.211,0.262,2.25,0.787,3.118s1.221,1.635,2.089,2.301
		c0.867,0.666,1.852,1.267,2.952,1.802c1.1,0.534,2.22,1.069,3.361,1.604c1.14,0.535,2.26,1.11,3.36,1.726
		c1.1,0.616,2.084,1.343,2.952,2.18c0.868,0.838,1.564,1.816,2.089,2.937C510.657,793.187,510.92,794.515,510.92,796.048z"/>
	<path class="st0" d="M546.676,805.403c0.121,0.303,0.176,0.55,0.167,0.741c-0.011,0.192-0.081,0.339-0.212,0.439
		s-0.333,0.167-0.605,0.197s-0.621,0.045-1.044,0.045s-0.762-0.015-1.014-0.045c-0.252-0.03-0.449-0.076-0.59-0.137
		c-0.142-0.061-0.248-0.141-0.318-0.242c-0.071-0.101-0.136-0.222-0.197-0.363l-3.754-10.445H521.91l-3.603,10.385
		c-0.041,0.142-0.101,0.263-0.182,0.363c-0.081,0.102-0.192,0.187-0.333,0.257c-0.142,0.071-0.338,0.126-0.59,0.167
		c-0.253,0.04-0.571,0.061-0.954,0.061c-0.424,0-0.777-0.021-1.06-0.061c-0.283-0.041-0.489-0.111-0.621-0.212
		s-0.202-0.242-0.212-0.424s0.045-0.424,0.167-0.727l13.715-37.27c0.061-0.161,0.152-0.298,0.273-0.409
		c0.121-0.11,0.277-0.196,0.469-0.257c0.191-0.061,0.424-0.106,0.696-0.137s0.58-0.045,0.923-0.045c0.363,0,0.681,0.015,0.954,0.045
		s0.504,0.076,0.696,0.137s0.343,0.146,0.454,0.257c0.111,0.111,0.197,0.248,0.257,0.409L546.676,805.403z M530.418,771.434h-0.03
		L523,792.506h14.986L530.418,771.434z"/>
	<path class="st0" d="M560.24,791.204v14.835c0,0.121-0.03,0.232-0.091,0.333c-0.061,0.102-0.162,0.182-0.303,0.242
		c-0.142,0.061-0.333,0.11-0.575,0.151c-0.243,0.04-0.535,0.061-0.878,0.061c-0.363,0-0.661-0.021-0.893-0.061
		c-0.232-0.041-0.424-0.091-0.575-0.151s-0.257-0.141-0.318-0.242c-0.061-0.101-0.091-0.212-0.091-0.333v-14.835l-11.263-22.495
		c-0.141-0.303-0.222-0.545-0.242-0.727s0.025-0.323,0.136-0.424s0.298-0.172,0.56-0.212s0.595-0.061,0.999-0.061
		c0.444,0,0.803,0.015,1.075,0.045s0.494,0.076,0.666,0.137c0.171,0.061,0.297,0.142,0.378,0.242
		c0.081,0.101,0.161,0.222,0.242,0.363l5.995,12.201c0.565,1.15,1.125,2.342,1.68,3.572c0.555,1.231,1.115,2.473,1.68,3.724h0.061
		c0.525-1.19,1.06-2.392,1.605-3.603s1.1-2.411,1.665-3.603l6.055-12.292c0.061-0.142,0.131-0.263,0.212-0.363
		c0.081-0.101,0.191-0.182,0.333-0.242c0.141-0.061,0.328-0.106,0.56-0.137c0.232-0.03,0.52-0.045,0.863-0.045
		c0.484,0,0.878,0.021,1.181,0.061c0.303,0.04,0.515,0.116,0.636,0.227c0.121,0.111,0.171,0.258,0.151,0.439
		c-0.021,0.182-0.102,0.414-0.242,0.696L560.24,791.204z"/>
	<path class="st0" d="M596.358,806.039c0,0.121-0.03,0.232-0.091,0.333c-0.061,0.102-0.162,0.182-0.303,0.242
		c-0.142,0.061-0.328,0.11-0.561,0.151c-0.232,0.04-0.529,0.061-0.893,0.061c-0.344,0-0.636-0.021-0.878-0.061
		c-0.242-0.041-0.435-0.091-0.575-0.151c-0.142-0.061-0.243-0.141-0.304-0.242c-0.061-0.101-0.091-0.212-0.091-0.333v-37.966
		c0-0.121,0.035-0.232,0.106-0.333c0.07-0.101,0.182-0.182,0.333-0.242s0.343-0.111,0.575-0.151c0.231-0.04,0.51-0.061,0.833-0.061
		c0.363,0,0.66,0.021,0.893,0.061s0.419,0.091,0.561,0.151c0.141,0.061,0.242,0.142,0.303,0.242s0.091,0.212,0.091,0.333V806.039z"
		/>
	<path class="st0" d="M631.539,769.163c0,0.263-0.02,0.495-0.061,0.696c-0.04,0.202-0.101,0.368-0.182,0.5
		c-0.08,0.131-0.182,0.231-0.303,0.303c-0.121,0.07-0.252,0.105-0.394,0.105h-11.687v35.271c0,0.121-0.03,0.232-0.091,0.333
		c-0.061,0.102-0.161,0.182-0.303,0.242c-0.141,0.061-0.333,0.11-0.575,0.151c-0.242,0.04-0.535,0.061-0.878,0.061
		s-0.636-0.021-0.878-0.061c-0.242-0.041-0.435-0.091-0.575-0.151c-0.142-0.061-0.242-0.141-0.303-0.242
		c-0.061-0.101-0.091-0.212-0.091-0.333v-35.271h-11.687c-0.162,0-0.298-0.035-0.408-0.105c-0.111-0.071-0.208-0.172-0.288-0.303
		c-0.081-0.132-0.142-0.298-0.182-0.5c-0.041-0.201-0.061-0.434-0.061-0.696c0-0.282,0.02-0.53,0.061-0.742
		c0.04-0.212,0.101-0.388,0.182-0.529c0.08-0.142,0.177-0.247,0.288-0.318c0.11-0.07,0.246-0.105,0.408-0.105h27.066
		c0.142,0,0.272,0.035,0.394,0.105c0.121,0.071,0.223,0.177,0.303,0.318c0.081,0.142,0.142,0.317,0.182,0.529
		C631.52,768.633,631.539,768.881,631.539,769.163z"/>
	<path class="st0" d="M683.311,786.602c0,3.129-0.358,5.96-1.075,8.493c-0.716,2.533-1.791,4.692-3.224,6.479
		c-1.434,1.786-3.24,3.164-5.42,4.133s-4.723,1.453-7.629,1.453c-2.907,0-5.404-0.459-7.493-1.378
		c-2.09-0.918-3.806-2.229-5.147-3.936c-1.343-1.705-2.331-3.789-2.967-6.252c-0.636-2.462-0.954-5.237-0.954-8.326
		c0-3.067,0.354-5.853,1.06-8.355c0.707-2.503,1.781-4.637,3.225-6.403s3.25-3.134,5.42-4.103c2.169-0.969,4.718-1.453,7.645-1.453
		c2.846,0,5.308,0.454,7.387,1.362s3.8,2.21,5.162,3.905s2.372,3.754,3.027,6.177C682.982,780.819,683.311,783.555,683.311,786.602z
		 M679.375,786.935c0-2.32-0.218-4.495-0.651-6.524c-0.435-2.028-1.15-3.794-2.149-5.298s-2.326-2.685-3.981-3.542
		c-1.655-0.858-3.704-1.287-6.146-1.287c-2.423,0-4.466,0.449-6.131,1.348s-3.018,2.104-4.058,3.617
		c-1.039,1.515-1.786,3.28-2.24,5.299s-0.681,4.147-0.681,6.388c0,2.382,0.206,4.598,0.62,6.646c0.414,2.049,1.115,3.83,2.104,5.344
		c0.988,1.514,2.311,2.7,3.966,3.558c1.655,0.858,3.724,1.287,6.207,1.287c2.462,0,4.53-0.459,6.206-1.378
		c1.675-0.918,3.027-2.149,4.057-3.693c1.03-1.544,1.767-3.33,2.211-5.359C679.152,791.31,679.375,789.176,679.375,786.935z"/>
	<path class="st0" d="M720.43,792.233c0,2.382-0.339,4.501-1.015,6.357c-0.677,1.857-1.64,3.422-2.892,4.693
		c-1.251,1.271-2.765,2.235-4.541,2.891c-1.776,0.656-3.765,0.984-5.964,0.984c-1.999,0-3.841-0.313-5.525-0.938
		c-1.686-0.625-3.139-1.549-4.36-2.771c-1.221-1.221-2.17-2.734-2.846-4.541c-0.677-1.807-1.015-3.891-1.015-6.252v-24.584
		c0-0.121,0.03-0.232,0.091-0.333s0.167-0.182,0.318-0.242s0.338-0.111,0.561-0.151c0.222-0.04,0.515-0.061,0.878-0.061
		c0.343,0,0.636,0.021,0.878,0.061s0.434,0.091,0.575,0.151c0.141,0.061,0.242,0.142,0.303,0.242s0.091,0.212,0.091,0.333v23.979
		c0,1.958,0.236,3.674,0.711,5.146c0.475,1.474,1.161,2.7,2.059,3.679c0.898,0.979,1.988,1.716,3.271,2.21
		c1.281,0.495,2.729,0.742,4.345,0.742c1.635,0,3.093-0.237,4.374-0.712c1.282-0.474,2.367-1.195,3.255-2.164
		c0.888-0.97,1.569-2.175,2.044-3.618c0.474-1.443,0.711-3.134,0.711-5.071v-24.19c0-0.121,0.03-0.232,0.091-0.333
		s0.162-0.182,0.304-0.242c0.141-0.061,0.333-0.111,0.575-0.151s0.534-0.061,0.878-0.061c0.343,0,0.636,0.021,0.878,0.061
		s0.434,0.091,0.575,0.151c0.141,0.061,0.242,0.142,0.303,0.242s0.091,0.212,0.091,0.333V792.233z"/>
	<path class="st0" d="M755.519,769.163c0,0.263-0.02,0.495-0.061,0.696c-0.04,0.202-0.101,0.368-0.182,0.5
		c-0.08,0.131-0.182,0.231-0.303,0.303c-0.121,0.07-0.252,0.105-0.394,0.105h-11.687v35.271c0,0.121-0.03,0.232-0.091,0.333
		c-0.061,0.102-0.161,0.182-0.303,0.242c-0.141,0.061-0.333,0.11-0.575,0.151c-0.242,0.04-0.535,0.061-0.878,0.061
		s-0.636-0.021-0.878-0.061c-0.242-0.041-0.435-0.091-0.575-0.151c-0.142-0.061-0.242-0.141-0.303-0.242
		c-0.061-0.101-0.091-0.212-0.091-0.333v-35.271h-11.687c-0.162,0-0.298-0.035-0.408-0.105c-0.111-0.071-0.208-0.172-0.288-0.303
		c-0.081-0.132-0.142-0.298-0.182-0.5c-0.041-0.201-0.061-0.434-0.061-0.696c0-0.282,0.02-0.53,0.061-0.742
		c0.04-0.212,0.101-0.388,0.182-0.529c0.08-0.142,0.177-0.247,0.288-0.318c0.11-0.07,0.246-0.105,0.408-0.105h27.066
		c0.142,0,0.272,0.035,0.394,0.105c0.121,0.071,0.223,0.177,0.303,0.318c0.081,0.142,0.142,0.317,0.182,0.529
		C755.499,768.633,755.519,768.881,755.519,769.163z"/>
	<path class="st0" d="M795.422,804.949c0,0.283-0.021,0.525-0.061,0.727c-0.041,0.202-0.102,0.378-0.182,0.529
		c-0.081,0.151-0.182,0.263-0.303,0.333c-0.121,0.071-0.263,0.106-0.424,0.106h-16.984c-0.363,0-0.737-0.137-1.12-0.409
		c-0.384-0.272-0.576-0.771-0.576-1.498v-36.664c0-0.121,0.03-0.232,0.091-0.333s0.162-0.182,0.304-0.242
		c0.141-0.061,0.333-0.111,0.575-0.151s0.534-0.061,0.878-0.061c0.363,0,0.66,0.021,0.893,0.061s0.419,0.091,0.561,0.151
		c0.141,0.061,0.242,0.142,0.303,0.242s0.091,0.212,0.091,0.333v35.211h14.986c0.161,0,0.303,0.035,0.424,0.105
		c0.121,0.071,0.222,0.172,0.303,0.303c0.08,0.132,0.141,0.303,0.182,0.515C795.401,804.419,795.422,804.667,795.422,804.949z"/>
	<path class="st0" d="M831.753,786.602c0,3.129-0.358,5.96-1.075,8.493c-0.716,2.533-1.791,4.692-3.224,6.479
		c-1.434,1.786-3.24,3.164-5.42,4.133s-4.723,1.453-7.629,1.453c-2.907,0-5.404-0.459-7.493-1.378
		c-2.09-0.918-3.806-2.229-5.147-3.936c-1.343-1.705-2.331-3.789-2.967-6.252c-0.636-2.462-0.954-5.237-0.954-8.326
		c0-3.067,0.354-5.853,1.06-8.355c0.707-2.503,1.781-4.637,3.225-6.403s3.25-3.134,5.42-4.103c2.169-0.969,4.718-1.453,7.645-1.453
		c2.846,0,5.308,0.454,7.387,1.362s3.8,2.21,5.162,3.905s2.372,3.754,3.027,6.177C831.425,780.819,831.753,783.555,831.753,786.602z
		 M827.817,786.935c0-2.32-0.218-4.495-0.651-6.524c-0.435-2.028-1.15-3.794-2.149-5.298s-2.326-2.685-3.981-3.542
		c-1.655-0.858-3.704-1.287-6.146-1.287c-2.423,0-4.466,0.449-6.131,1.348s-3.018,2.104-4.058,3.617
		c-1.039,1.515-1.786,3.28-2.24,5.299s-0.681,4.147-0.681,6.388c0,2.382,0.206,4.598,0.62,6.646c0.414,2.049,1.115,3.83,2.104,5.344
		c0.988,1.514,2.311,2.7,3.966,3.558c1.655,0.858,3.724,1.287,6.207,1.287c2.462,0,4.53-0.459,6.206-1.378
		c1.675-0.918,3.027-2.149,4.057-3.693c1.03-1.544,1.767-3.33,2.211-5.359C827.595,791.31,827.817,789.176,827.817,786.935z"/>
	<path class="st0" d="M868.872,792.233c0,2.382-0.339,4.501-1.015,6.357c-0.677,1.857-1.64,3.422-2.892,4.693
		c-1.251,1.271-2.765,2.235-4.541,2.891c-1.776,0.656-3.765,0.984-5.964,0.984c-1.999,0-3.841-0.313-5.525-0.938
		c-1.686-0.625-3.139-1.549-4.36-2.771c-1.221-1.221-2.17-2.734-2.846-4.541c-0.677-1.807-1.015-3.891-1.015-6.252v-24.584
		c0-0.121,0.03-0.232,0.091-0.333s0.167-0.182,0.318-0.242s0.338-0.111,0.561-0.151c0.222-0.04,0.515-0.061,0.878-0.061
		c0.343,0,0.636,0.021,0.878,0.061s0.434,0.091,0.575,0.151c0.141,0.061,0.242,0.142,0.303,0.242s0.091,0.212,0.091,0.333v23.979
		c0,1.958,0.236,3.674,0.711,5.146c0.475,1.474,1.161,2.7,2.059,3.679c0.898,0.979,1.988,1.716,3.271,2.21
		c1.281,0.495,2.729,0.742,4.345,0.742c1.635,0,3.093-0.237,4.374-0.712c1.282-0.474,2.367-1.195,3.255-2.164
		c0.888-0.97,1.569-2.175,2.044-3.618c0.474-1.443,0.711-3.134,0.711-5.071v-24.19c0-0.121,0.03-0.232,0.091-0.333
		s0.162-0.182,0.304-0.242c0.141-0.061,0.333-0.111,0.575-0.151s0.534-0.061,0.878-0.061c0.343,0,0.636,0.021,0.878,0.061
		s0.434,0.091,0.575,0.151c0.141,0.061,0.242,0.142,0.303,0.242s0.091,0.212,0.091,0.333V792.233z"/>
	<path class="st0" d="M909.018,786.48c0,3.29-0.414,6.191-1.241,8.705c-0.828,2.513-2.049,4.616-3.664,6.313
		c-1.614,1.695-3.607,2.977-5.979,3.845c-2.371,0.868-5.202,1.302-8.492,1.302h-7.72c-0.363,0-0.737-0.137-1.12-0.409
		c-0.384-0.272-0.576-0.771-0.576-1.498v-35.362c0-0.727,0.192-1.227,0.576-1.499c0.383-0.272,0.757-0.408,1.12-0.408h8.234
		c3.331,0,6.141,0.454,8.432,1.362s4.209,2.195,5.753,3.86s2.71,3.663,3.497,5.994S909.018,783.615,909.018,786.48z
		 M905.052,786.662c0-2.28-0.288-4.395-0.863-6.343c-0.575-1.947-1.464-3.628-2.664-5.041c-1.201-1.412-2.721-2.518-4.557-3.314
		c-1.837-0.798-4.178-1.196-7.024-1.196h-6.024v32.577h6.055c2.664,0,4.92-0.328,6.767-0.984c1.847-0.655,3.386-1.67,4.617-3.043
		c1.231-1.372,2.154-3.103,2.771-5.192C904.743,792.036,905.052,789.549,905.052,786.662z"/>
</g>
<g>
	<path class="st0" d="M935.815,824.201c-1.787,0-3.235-1.448-3.235-3.235V674.343c0-1.787,1.448-3.235,3.235-3.235
		s3.235,1.448,3.235,3.235v146.623C939.051,822.753,937.603,824.201,935.815,824.201z"/>
</g>
</svg>
